<?xml version="1.0" encoding="iso-8859-1"?>
<svg version="1.1" id="Capa_1" xmlns="http://www.w3.org/2000/svg" xmlns:xlink="http://www.w3.org/1999/xlink" x="0px" y="0px"
	 viewBox="0 0 475.1 475.1" xml:space="preserve">
<style type="text/css">
	.st0{fill:#4163AC;}
</style>
<path class="st0" d="M268,397.7c-7.7,0-15.3-2.2-21.8-6.3l-105.4-66.1h-37.6c-11,0-21.3-4.3-29.1-12.1c-7.8-7.8-12.1-18.1-12.1-29.1
	v-92.4c0-22.7,18.5-41.2,41.2-41.2H141l105.2-65.9c6.6-4.1,14.1-6.3,21.8-6.3c10.6,0,20.8,4.1,28.5,11.4c3.9,3.8,7.1,8.2,9.2,13.2
	c2.3,5.2,3.5,10.8,3.5,16.6v236.9c0,5.8-1.2,11.3-3.5,16.6c-2.2,5-5.3,9.4-9.2,13.2C288.8,393.6,278.7,397.7,268,397.7z M103.2,156
	c-19.7,0-35.8,16-35.8,35.8v92.4c0,19.7,16,35.8,35.8,35.8h39.2l0.7,0.4l106.1,66.5c5.7,3.6,12.3,5.5,19,5.5c9.3,0,18-3.5,24.8-9.9
	c3.4-3.3,6.1-7.1,8-11.4c2-4.5,3-9.4,3-14.4V119.5c0-5-1-9.9-3-14.4c-1.9-4.3-4.6-8.2-8-11.4c-6.7-6.4-15.5-9.9-24.8-9.9
	c-6.7,0-13.3,1.9-19,5.5L142.6,156H103.2z M268,369.2c-2.4,0-4.7-0.7-6.7-2L154.2,300c-3.4-2.1-7.3-3.2-11.3-3.2h-39.7
	c-7,0-12.7-5.7-12.7-12.7v-92.4c0-7,5.7-12.7,12.7-12.7h39.9c4,0,7.9-1.1,11.3-3.2l106.9-67c2-1.3,4.4-2,6.7-2
	c7,0,12.7,5.7,12.7,12.7v236.9C280.8,363.5,275.1,369.2,268,369.2z M103.2,184.5c-4,0-7.3,3.3-7.3,7.3v92.4c0,4,3.3,7.3,7.3,7.3
	h39.7c5,0,9.9,1.4,14.2,4.1l107.2,67.2c1.2,0.7,2.5,1.1,3.8,1.1c4,0,7.3-3.3,7.3-7.3V119.5c0-4-3.3-7.3-7.3-7.3
	c-1.3,0-2.7,0.4-3.8,1.1l-106.9,67c-4.3,2.7-9.1,4.1-14.2,4.1H103.2z"/>
<path class="st0" d="M333.3,319.1c-2.7,0-5.2-0.6-7.6-1.8c-8.3-4.2-11.7-14.4-7.5-22.8c8.3-16.4,12.7-35.9,12.7-56.4
	c0-20.2-4.3-39.5-12.3-55.7c-2-4.1-2.3-8.6-0.9-12.9c1.4-4.3,4.5-7.8,8.5-9.8c2.4-1.2,4.9-1.8,7.5-1.8c6.5,0,12.3,3.6,15.2,9.4
	c10.4,20.9,15.9,45.4,15.9,70.8c0,25.8-5.7,50.6-16.4,71.8C345.5,315.6,339.7,319.1,333.3,319.1z M333.7,163.3
	c-1.8,0-3.5,0.4-5.1,1.2c-2.8,1.4-4.8,3.7-5.8,6.7c-1,2.9-0.8,6.1,0.6,8.8c8.4,17,12.9,37.1,12.9,58.1c0,21.4-4.6,41.7-13.3,58.9
	c-2.9,5.7-0.6,12.6,5.1,15.5c1.6,0.8,3.4,1.2,5.2,1.2c4.4,0,8.3-2.4,10.3-6.3c10.3-20.4,15.8-44.3,15.8-69.3
	c0-24.6-5.3-48.2-15.3-68.4C342.1,165.7,338.1,163.3,333.7,163.3z"/>
<path class="st0" d="M373.6,358.1c-2.7,0-5.2-0.6-7.6-1.8c-4-2-7-5.5-8.4-9.8c-1.4-4.3-1.1-8.9,1-12.9c14.1-27.9,21.6-61,21.6-95.7
	c0-34.2-7.3-66.9-21-94.5c-2-4-2.3-8.6-0.9-12.9c1.4-4.3,4.5-7.8,8.5-9.8c2.4-1.2,4.9-1.8,7.5-1.8c6.5,0,12.3,3.6,15.2,9.4
	c16.1,32.3,24.5,70.2,24.5,109.6c0,40-8.7,78.4-25.3,111C385.8,354.6,380.1,358.1,373.6,358.1z M374.3,124.3c-1.8,0-3.5,0.4-5.1,1.2
	c-2.8,1.4-4.8,3.7-5.8,6.7c-1,2.9-0.8,6.1,0.6,8.8c14.1,28.4,21.6,61.9,21.6,96.9c0,35.6-7.7,69.5-22.2,98.1
	c-1.4,2.7-1.6,5.9-0.7,8.8c1,2.9,3,5.3,5.8,6.7c1.6,0.8,3.4,1.3,5.2,1.3c4.4,0,8.3-2.4,10.3-6.3c16.1-31.8,24.7-69.4,24.7-108.6
	c0-38.6-8.3-75.6-24-107.2C382.7,126.7,378.7,124.3,374.3,124.3z"/>
</svg>
